<svg width="29" height="25" viewBox="0 0 29 25" fill="none" xmlns="http://www.w3.org/2000/svg">
<path d="M28.0342 7.88235C28.052 7.83555 28.0651 7.78769 28.0714 7.73878C28.0717 7.73626 28.0724 7.73374 28.0728 7.73086C28.0787 7.67944 28.076 7.62768 28.069 7.57594C28.0671 7.56265 28.0646 7.54972 28.0617 7.53679C28.0525 7.49117 28.0387 7.44665 28.0195 7.40322C28.0169 7.3982 28.0169 7.3928 28.0144 7.38778C28.0136 7.38634 28.0122 7.38527 28.0115 7.38348C27.9912 7.34293 27.9677 7.30348 27.9384 7.26692L22.2976 0.23545C22.294 0.23079 22.2893 0.227572 22.2853 0.223273C22.2651 0.199621 22.2428 0.178495 22.219 0.157373C22.2089 0.148423 22.1991 0.138394 22.1879 0.129807C22.1631 0.110487 22.1353 0.0944126 22.1065 0.079061C22.095 0.0726327 22.0842 0.0647639 22.0723 0.0594154C22.0701 0.0587044 22.0683 0.0569139 22.0662 0.0558434C21.9837 0.0184014 21.897 0.00110549 21.8118 0.000699472C21.8089 0.000710035 21.8064 3.93909e-07 21.8043 8.31602e-06L14.0109 0.0286336C14.0106 0.0286349 14.0102 0.0286362 14.0099 0.0286375C14.0095 0.0286388 14.0091 0.0286402 14.0088 0.0286415L6.21547 0.0572667C6.21295 0.057276 6.2108 0.0580028 6.20828 0.058012C6.12309 0.0594033 6.03616 0.0769773 5.95362 0.115385C5.95147 0.116471 5.94968 0.117916 5.94753 0.119002C5.93568 0.124797 5.92493 0.132745 5.91381 0.138897C5.88511 0.15446 5.85749 0.170738 5.83204 0.190602C5.82128 0.19891 5.81198 0.209009 5.80158 0.218034C5.77829 0.23897 5.75573 0.260261 5.73568 0.28442C5.73175 0.288748 5.72708 0.292 5.72351 0.296687L0.134482 7.3694C0.105499 7.40617 0.0822775 7.44544 0.0622977 7.4865C0.061584 7.48794 0.0601503 7.48902 0.0594379 7.49082C0.0569401 7.49586 0.05696 7.50125 0.0544622 7.5063C0.0352105 7.54986 0.0220738 7.59449 0.0132534 7.63981C0.0104265 7.65312 0.00795754 7.66607 0.00620904 7.67938C-0.000430766 7.73117 -0.0023974 7.78294 0.00354294 7.83432C0.00391298 7.8372 0.00464105 7.83971 0.00500977 7.84223C0.0120206 7.89145 0.0254968 7.93921 0.0432812 7.98552C0.04836 7.99808 0.053436 8.00992 0.0592324 8.02212C0.0795252 8.06626 0.103766 8.10859 0.134464 8.14766C0.136991 8.15053 0.138084 8.15448 0.140611 8.15735L0.145666 8.16344C0.146386 8.1638 0.146748 8.16452 0.147111 8.16523L13.6107 24.6613C13.6107 24.6613 13.6111 24.6613 13.6111 24.6617C13.6382 24.695 13.6689 24.7258 13.7038 24.7537C13.7053 24.7548 13.7071 24.7552 13.7085 24.7562C13.7117 24.7588 13.7146 24.7616 13.7175 24.7641C13.7204 24.7659 13.7236 24.7673 13.7262 24.7695C13.7723 24.8035 13.8227 24.8284 13.8746 24.8484C13.8821 24.8512 13.8879 24.8566 13.8954 24.8591C13.903 24.8616 13.912 24.8612 13.9195 24.8633C13.9778 24.8807 14.0376 24.8927 14.0983 24.8925C14.099 24.8925 14.0994 24.8925 14.0998 24.8925C14.1001 24.8925 14.1005 24.8925 14.1005 24.8925C14.1008 24.8925 14.1012 24.8925 14.1019 24.8925C14.1627 24.8923 14.2223 24.8798 14.2805 24.862C14.288 24.8598 14.297 24.8601 14.3045 24.8576C14.3121 24.855 14.3178 24.8496 14.3253 24.8467C14.3777 24.8264 14.4276 24.8011 14.4735 24.7664C14.476 24.7646 14.4796 24.7631 14.4818 24.7613C14.485 24.7588 14.4878 24.7559 14.4907 24.7534C14.4921 24.7523 14.4939 24.7519 14.4954 24.7508C14.5301 24.7227 14.5606 24.6913 14.5874 24.6581C14.5874 24.6581 14.5878 24.6581 14.5878 24.6578L27.9299 8.06319C27.9302 8.06247 27.9306 8.0621 27.9313 8.06138L27.9363 8.05525C27.9388 8.05237 27.9399 8.04841 27.942 8.04553C27.9728 8.00623 27.9967 7.96372 28.017 7.91943C28.0238 7.90683 28.0292 7.89495 28.0342 7.88235ZM6.07694 1.88031L8.48878 7.1011L1.93204 7.12519L6.07694 1.88031ZM7.20073 1.31217L12.8739 1.29133L9.60061 6.50676L7.20073 1.31217ZM10.7179 7.09291L14.0183 1.83425L17.3566 7.06853L10.7179 7.09291ZM17.7828 8.32513L14.0909 21.8981L10.2994 8.35261L17.7828 8.32513ZM18.4687 6.47275L15.1587 1.28258L20.8297 1.26175L18.4687 6.47275ZM21.9576 1.82198L26.1409 7.03626L19.5842 7.06035L21.9576 1.82198ZM8.9945 8.35741L12.6819 21.5316L1.95104 8.38328L8.9945 8.35741ZM15.4972 21.5212L19.0877 8.32033L26.1312 8.29446L15.4972 21.5212Z" fill="white"/>
</svg>
