<svg xmlns="http://www.w3.org/2000/svg" width="1024" height="1024" viewBox="0 0 1024 1024"><path fill="#10dfe2" d="M510.977 30.217a96.7 96.7 0 0 1 43.192 9.29c10.283 4.77 18.256 10.758 27.911 16.213 23.525 13.294 46.901 26.929 70.235 40.562l69.292 40.864 111.676 65.547 39.658 23.172c13.674 7.917 31.097 16.79 42.048 27.746 20.539 20.549 31.628 47.482 31.413 76.491-.107 14.35-.106 29.139-.048 43.456l-.047 181.869.283 85.572c.057 17.124 1.121 43.398-1.864 59.203a107.64 107.64 0 0 1-28.805 55.239c-11.313 11.618-24.45 18.715-38.277 27.098l-46.596 27.67L662.7 910.714l-74.963 44.811c-9.066 5.299-18.56 11.963-28.007 16.451a108.9 108.9 0 0 1-45.355 10.561c-32.757.566-47.568-9.806-74.434-25.674a4332 4332 0 0 1-49.328-29.307l-143.1-84.553-84.2-49.907c-14.307-8.412-38.441-21.281-49.988-31.204-21.137-18.165-33.57-45.88-34.183-73.571-.237-10.737-.184-21.898-.16-32.837l.251-60.363-.326-140.877.056-89.233c.062-43.001-3.226-73.717 28.586-108.461a96 96 0 0 1 17.42-15.06c10.656-7.042 27.594-16.279 39.149-23.142 44.857-26.641 89.916-52.846 134.766-79.543l81.814-48.243c13.497-7.93 27.153-16.04 40.661-23.936 31.036-18.142 52.088-34.647 89.618-36.409m11.437 937.929c24.996-2.424 37.661-11.519 58.212-24.167l30.004-18.08 102.305-61.339c6.344-3.804 13.041-7.268 19.463-11.08l66.299-40.091c31.61-18.85 64.05-37.37 95.49-56.619 6.211-3.803 12.997-10.845 17.625-16.453a91.4 91.4 0 0 0 19.891-45.842c1.12-8.24.794-18.643.769-27.118l-.124-38.604-.176-127.131-.179-129.517.018-32.787c.019-6.592.332-16.774-.504-23.093-2.954-22.321-14.734-44.458-32.329-58.711-4.858-3.935-13.112-8.151-18.576-11.185a835 835 0 0 1-18.737-10.809L765.2 179.143 618.875 93.068l-41.573-24.55a1547 1547 0 0 1-16.722-10.125c-14.909-9.18-39.59-16.778-57.238-13.705-30.222 4.066-44.488 16.579-69.639 30.808a10086 10086 0 0 0-122.182 71.755l-88.897 51.962c-6.975 4.124-13.873 8.922-20.818 12.924l-45.893 26.242c-7.473 4.346-15.944 9.011-23.034 13.818a90.1 90.1 0 0 0-21.356 20.123c-18.506 24.047-19.52 45.881-19.55 74.468l-.01 39.497.146 137.78-.072 116.522-.038 31.519c-.02 7.127-.269 17.905.803 24.843 3.228 20.891 15.106 43.814 31.833 57.058 5.213 4.128 14.491 8.937 20.279 12.443a2348 2348 0 0 0 22.62 13.537l86.512 51.132 147.318 87.136a2703 2703 0 0 0 47.14 27.805c8.633 5.061 18.266 11.268 27.274 15.218 13.405 5.877 32.027 8.658 46.636 6.868"/><path fill="#1a0816" d="M506.726 117.709c28.863-1.599 54.478 12.314 69.115 37.437 3.416 5.863 5.626 11.778 8.153 18.051 29.243 8.293 49.901 13.501 77.658 26.599 59.768 28.205 104.586 67.388 142.278 120.954 92.944 132.09 78.367 324.588-35.04 440.035-8.336 8.477-16.968 17.098-25.98 24.815a351.45 351.45 0 0 1-225.285 85.92c-75.178.396-140.981-19.614-203.978-60.712-156.436-102.056-203.699-322.204-100.779-479.609a359.45 359.45 0 0 1 227.413-157.134c11.583-33.29 29.824-53.011 66.445-56.356m8.059 75.559c9.407-1.611 15.723-10.547 14.104-19.951s-10.56-15.714-19.964-14.086c-9.392 1.625-15.691 10.552-14.074 19.946 1.618 9.393 10.54 15.7 19.934 14.091"/><path fill="#363f47" d="M509.071 125.208q1.732-.117 3.468-.176c24.099-.782 45.074 13.793 57.355 34.231 2.697 4.487 6.882 18.756 9.746 19.79 13.292 4.7 27.323 7.055 40.853 11.554 54.792 18.219 105.709 49.909 145.023 92.414a345.92 345.92 0 0 1 92.947 222.399 344.3 344.3 0 0 1-69.059 219.634c-67.32 89.818-162.389 136.572-274.245 139.861-81.417 1.226-165.176-29.642-227.573-81.715a343.5 343.5 0 0 1-121.528-235.897c-2.33-26.274-.81-47.113 2.376-73.398 16.784-138.467 122.165-252.85 255.767-288.803 27.867-7.499 16.761 1.166 28.408-22.393a72 72 0 0 1 9.662-14.903c12.204-14.439 28.337-20.968 46.8-22.598m5.714 68.06c9.407-1.611 15.723-10.547 14.104-19.951s-10.56-15.714-19.964-14.086c-9.392 1.625-15.691 10.552-14.074 19.946 1.618 9.393 10.54 15.7 19.934 14.091"/><path fill="#1a0816" d="M494.583 215.388c167.307-9.341 310.435 118.877 319.48 286.201 9.045 167.323-119.425 310.224-286.765 318.974-166.921 8.728-309.388-119.353-318.411-286.259s118.806-309.599 285.696-318.916"/><path fill="#36172c" d="M507.511 220.356c164.581-2.294 299.82 129.347 301.962 293.931s-129.625 299.7-294.21 301.69c-164.371 1.987-299.272-129.569-301.411-293.938-2.139-164.368 129.292-299.391 293.659-301.683"/><path fill="#10dfe2" d="m486.925 235.924.452-.191c7.073-3.047 47.177-3.482 53.033.709 47.728 4.524 91.077 21.551 130.65 48.27 9.883 6.673 20.259 13.392 28.384 22.25 4.762 5.192 6.257 15.538 1.839 21.215-7.972 10.242-18.132 19.429-26.185 29.607-1.529 1.911.285 4.784 2.383 5.71 5.356-.332 30.274-24.459 38.563-26.422 5.452-1.291 5.703-1.258 11.209-.451.548-6.495-14.914-21.046-21.11-22.865l.059-.461c7.611-.42 15.195 11.47 20.302 16.401 1.339 1.292 2.137 6.441 2.294 6.564 6.644 5.217 9.562 9.328 14.326 15.935 10.437 14.475 20.238 29.668 27.857 45.851 1.295 2.694 3.097 7.782 4.374 10.048 2.012 3.574 5.758 16.87 7.641 19.113l1.312-2.765.398.184.013.582-.114-.731c-.858-5.253-3.294-10.086-5.252-15.166-8.906-23.112-21.465-45.094-36.605-64.674-2.045-2.645-2.373-4.064-5.047-6.135l.128-.812c8.465 7.556 25.301 35.269 30.813 45.952 45.977 89.105 43.628 205.523-13.182 289.341-8.084 11.928-17.025 25.411-26.648 36.168a126 126 0 0 1-5.926 6.213l-.39-.349c2.117-3.265 16.485-17.1 17.252-21.985-.765-.546-.469-.293-1.829-.202-3.286 1.812-3.166 5.199-7.133 7.55-5.279 3.129-7.739 5.288-14.361 3.951-5.671-1.145-20.031-11.518-21.807-16.251-2.229-3.003-11.882-9.875-15.658-11.655-3.07-1.446-6.33 2.024-5.869 3.761 2.701 10.178 17.337 17.3 24.05 25.366 3.838 4.611 6.161 8.051 5.909 14.102-.212 5.699-3.687 10.982-7.746 14.444-38.41 32.757-86.901 55.679-136.864 63.363-7.136 1.098-16.253 2.635-23.223 2.422-28.71-.873-11.004-46.653-19.603-55.435a5.8 5.8 0 0 0-4.73-1.679c-9.965 1.026-.665 41.179-8.703 51.166-2.973 3.694-7.691 5.615-12.324 6.033-8.857.8-19.426-1.718-28.159-3.338-48.015-8.907-95.216-30.107-132.201-62.306-4.16-3.621-8.216-8.472-8.43-14.246-.407-10.955 20.827-25.925 27.55-34.179.906-1.112 1.391-2.651 1.03-4.068-.34-1.335-1.393-2.526-2.529-3.264-8.673-5.635-27.061 25.321-37.273 27.077-4.394.756-9.945-1.312-13.448-3.88-6.769-4.962-11.904-13.372-16.796-20.122-25.694-35.455-43.187-75.417-49.578-118.849-1.429-9.706-3.58-20.512 2.973-28.918 11.228-14.402 32.494-6.24 47.744-8.814 2.096-.354 4.433-1.107 5.584-3.045.825-1.387.861-3.217.274-4.701-.855-2.165-3.253-3.045-5.348-3.467-11.41-2.297-27.515 2.208-39.231-2.051-5.424-1.972-9.797-5.819-12.075-11.165-5.623-13.198 6.34-56.633 11.111-71.273 2.73-8.374 6.037-16.552 9.303-24.728l-.359-.363c-.02-1.385 5.756-13.046 6.801-15.061a275.6 275.6 0 0 1 50.65-69.107c4.041-4.013 8.513-9.205 13.597-11.26 1.809-.731 1.694-3.792 3.23-5.115 3.536-3.048 14.214-13.176 18.396-13.448.887-.39 10.15-6.927 11.657-7.948a256 256 0 0 1 18.979-11.657c35.699-20.007 73.061-30.837 113.616-34.746"/><path fill="#1a0816" d="M727.253 336.621c.548-6.495-14.914-21.046-21.11-22.865l.059-.461c7.611-.42 15.195 11.47 20.302 16.401 1.339 1.292 2.137 6.441 2.294 6.564 6.644 5.217 9.562 9.328 14.326 15.935 10.437 14.475 20.238 29.668 27.857 45.851 1.295 2.694 3.097 7.782 4.374 10.048 2.012 3.574 5.758 16.87 7.641 19.113l1.312-2.765.398.184.013.582-.114-.731c-.858-5.253-3.294-10.086-5.252-15.166-8.906-23.112-21.465-45.094-36.605-64.674-2.045-2.645-2.373-4.064-5.047-6.135l.128-.812c8.465 7.556 25.301 35.269 30.813 45.952 45.977 89.105 43.628 205.523-13.182 289.341-8.084 11.928-17.025 25.411-26.648 36.168a126 126 0 0 1-5.926 6.213l-.39-.349c2.117-3.265 16.485-17.1 17.252-21.985-.765-.546-.469-.293-1.829-.202-3.286 1.812-3.166 5.199-7.133 7.55-5.279 3.129-7.739 5.288-14.361 3.951-5.671-1.145-20.031-11.518-21.807-16.251 7.054 5.425 14.735 14.826 24.066 15.624 10.806.923 17.97-11.598 23.738-19.387a284.7 284.7 0 0 0 48.38-108.571c12.305-55.51-.754-49.787-48.371-50.698-2.467-1.93-4.667-3.507-3.853-6.935.982-1.417 2.705-3.03 4.478-3.211 32.615-3.322 60.088 9.021 50.566-39.735-1.014-5.194-2.088-12.586-3.317-18.023a277.8 277.8 0 0 0-45.208-100.852c-4.783-6.665-10.971-15.332-17.844-19.669"/><path fill="#363f47" d="m486.925 235.924.452-.191c7.073-3.047 47.177-3.482 53.033.709-27.664 2.723-21.712 28.398-21.981 47.737-.042 3.029.138 7.541-2.367 9.749-2.915 2.569-7.977 1.364-8.985-2.669-2.632-11.446.815-25.602-1.289-36.981a23.45 23.45 0 0 0-4.61-10.193c-3.713-4.786-8.243-7.432-14.253-8.161"/><path fill="#363f47" d="m250.358 404.629-.359-.363c-.02-1.385 5.756-13.046 6.801-15.061a275.6 275.6 0 0 1 50.65-69.107c4.041-4.013 8.513-9.205 13.597-11.26 1.809-.731 1.694-3.792 3.23-5.115 3.536-3.048 14.214-13.176 18.396-13.448-8.465 6.697-20.824 13.13-21.955 25.051-1.53 16.126 19.007 26.2 27.874 37.19 3.247 4.024.87 9.323-4.265 8.175-14.791-6.572-27.359-35.45-46.657-26.167-12.728 7.532-30.3 37.73-38.046 51.339-2.192 3.85-7.284 15.964-9.266 18.766"/><path fill="#363f47" d="M330.11 312.911c4.274-5.903 14.456-13.124 20.558-17.497 36.17-25.86 79.087-42.579 123.058-48.905 5.897-.86 12.904-2.676 18.203.993 8.11 5.615 5.033 18.3 5.448 27.008.608 12.746-3.523 22.017 10.18 29.368l.003 149.896c-16.588 3.98-26.331 6.47-39.751 17.993a2763 2763 0 0 1-27.139-26.444l-4.516-4.768a4399 4399 0 0 1-78.815-78.964c7.026-18.595-22.202-27-27.001-42.201-.545-1.727-.314-4.65-.228-6.479"/><path fill="#1a0816" d="M436.154 440.555c4.138-4.331 9.772-8.41 14.725-11.712 18.308-12.21 31.347-15.717 52.498-18.485.552 2.616.491 3.702.514 6.333-25.502 3.596-43.899 11.155-63.221 28.632z"/><path fill="#080a19" d="M503.377 410.358c1.251-.07 3.169-.513 3.722.602 1.876 3.786.05 5.491-3.208 5.731-.023-2.631.038-3.717-.514-6.333"/><path fill="#363f47" d="M439.697 595.219c8.851-8.964 18.438-19.039 27.702-27.474 11.891 10.1 24.643 16.658 40.534 17.876l.014 37.444.029 6.504c.047 34.672-.318 69.817.15 104.442-8.823 4.96-11.24 9.739-11.131 19.858.098 9.103.435 18.367.462 27.447.023 7.566-4.872 10.559-11.912 9.771-6.439-.58-12.821-1.707-19.251-2.774a273 273 0 0 1-119.585-51.177c-4.882-3.685-10.935-7.964-15.339-12.126-2.295-2.168-1.718-5.29-1.538-8.333 5.288-5.411 10.985-10.565 16.336-15.907 8.088-8.074 15.353-11.816 11.058-24.425 26.149-24.769 51.031-51.565 77.43-76.272z"/><path fill="#363f47" d="M439.697 595.219c8.851-8.964 18.438-19.039 27.702-27.474 11.891 10.1 24.643 16.658 40.534 17.876l.014 37.444c-25.868-1.005-48.652-11.25-68.25-27.846"/><path fill="#1a0816" d="M439.697 595.219c19.598 16.596 42.382 26.841 68.25 27.846l.029 6.504c-26.031.088-53.565-13.086-73.32-29.496z"/><path fill="#f0418b" d="m474.603 649.437.377.144.048.452c-2.569 1.701-5.416 3.925-7.835 5.89-13.23 10.747-27.046 19.958-41.312 29.248 6.801 1.369 34.49 16.92 41.672 21.17a5514 5514 0 0 0-67.768 41.368c-3.333 2.113-6.491 3.865-9.948 5.777 10.652-10.849 21.092-21.405 32.252-31.714 5.472-5.054 10.426-10.471 16.206-15.302-9.588-5.732-21.934-12.69-30.734-19.166 18.792-13.103 46.458-26.65 67.042-37.867"/><path fill="#363f47" d="M527.515 254.693c8.338-14.692 16.303-8.703 30.135-6.316a270.3 270.3 0 0 1 111.408 45.772c6.325 4.402 25.603 16.914 25.047 23.566-1.439 17.199-29.043 26.026-28.372 45.468l.029.666c-4.595 3.402-8.955 7.726-13.334 11.512-7.656-12.696-21.095-33.08-30.541-44.655 6.628 15.166 17.067 36.584 24.639 51.483-18.049 15.199-34.186 33.813-51.497 49.876a162 162 0 0 0-7.195 7.146l-4.277 4.657c-3.194 4.282-22.988 23.498-27.448 27.323-11.709-10.252-24.388-15.024-39.672-17.111l.05-36.241.06-7.252c.373-34.998.258-71.056-.019-106.045 3.663-2.825 9.451-6.597 9.982-11.536 1.348-12.557.708-25.602 1.005-38.313"/><path fill="#363f47" d="M516.487 417.839c19.495-.081 35.613 4.69 52.169 14.969 4.329 2.688 8.979 5.489 12.711 9.031.631.599 1.501 1.56 2.19 2.029-3.194 4.282-22.988 23.498-27.448 27.323-11.709-10.252-24.388-15.024-39.672-17.111z"/><path fill="#1a0816" d="M516.547 410.587c21.423-.691 54.666 12.471 70.012 27.269q.668.648 1.275 1.355l-4.277 4.657c-.689-.469-1.559-1.43-2.19-2.029-3.732-3.542-8.382-6.343-12.711-9.031-16.556-10.279-32.674-15.05-52.169-14.969z"/><path fill="#363f47" d="M516.668 585.661c17.479-2.595 25.094-6.912 39.313-16.868 6.655 4.528 20.953 19.54 27.133 25.822l5.38 5.306c5.843 6.59 12.944 12.749 19.223 18.958 9.801 9.693 19.477 19.509 29.234 29.247 9.461 9.441 19.077 18.083 27.551 28.434-2.222 11.422 5.677 16.807 12.998 23.578 5.054 4.674 10.858 9.579 15.459 14.663l.538.599c.031 2.511-.052 5.267-.082 7.797-3.21 4.108-9.835 8.432-14.021 11.67-37.336 28.878-80.893 47.772-127.665 54.5-7.569.939-21.643 6.089-24.302-4.936-3.415-14.162 6.659-43.196-10.83-49.912z"/><path fill="#1a0816" d="M517.016 623.111c20.495-.223 39.467-8.792 56.269-20.156 3.041-2.057 6.95-5.866 9.829-8.34l5.38 5.306c-20.818 18.095-44.431 26.777-71.48 29.86z"/><path fill="#363f47" d="M621.887 330.706c9.446 11.575 22.885 31.959 30.541 44.655 1.545 3.114 2.307 4.091 4.374 6.852 5.576-4.245 8.763-7.653 13.61-12.767 11.052 5.291 16.72-.205 25.293-6.84 7.254-5.615 14.41-11.346 21.442-17.244 3.942.002 7.745-.344 10.53 2.833 4.021 4.586 8.158 10.476 11.686 15.454a270.2 270.2 0 0 1 45.208 111.145c1.104 6.5 2.414 13.362 2.497 19.939.057 4.596-3.227 7.585-6.871 9.742-7.171.615-14.616.348-21.816.429-11.511.129-20.62-1.514-27.293 9.788l-82.61-.277c-4.454-.015-30.133.228-32.946-.297-12.558.281-26.158.013-38.801.01-3.067-16.549-4.934-22.052-13.825-35.837 6.507-8.045 19.163-20.517 26.591-28.21l4.554-4.294a5753 5753 0 0 0 55.484-56.193c-.781-2.285-2.062-5.128-3.009-7.405-7.572-14.899-18.011-36.317-24.639-51.483"/><path fill="#f0418b" d="M621.887 330.706c9.446 11.575 22.885 31.959 30.541 44.655 1.545 3.114 2.307 4.091 4.374 6.852 7.719 10.926 13.718 22.052 22.011 32.763 8.722-9.022 25.494-26.269 34.992-33.483a3073 3073 0 0 0 6.907 56.594c2.492 18.53 5.652 39.729 6.359 58.331-3.798-12.121-6.712-24.799-10.124-37.061-4.275-15.366-8.949-30.649-13.028-46.061-7.162 5.817-21.497 21.997-28.26 29.247l-17.219-35.02c-2.612-5.3-6.124-13.054-8.905-17.929-.781-2.285-2.062-5.128-3.009-7.405-7.572-14.899-18.011-36.317-24.639-51.483"/><path fill="#363f47" d="M589.497 450.081a105.2 105.2 0 0 1 26.035 64.037c-12.558.281-26.158.013-38.801.01-3.067-16.549-4.934-22.052-13.825-35.837 6.507-8.045 19.163-20.517 26.591-28.21"/><path fill="#1a0816" d="M594.051 445.787c17.139 18.023 26.671 43.438 27.632 68.107-1.942.026-4.267-.033-6.151.224a105.2 105.2 0 0 0-26.035-64.037z"/><path fill="#363f47" d="m296.019 522.976 105.471.032 6.494-.003 38.873.048c1.411 14.329 5.731 26.015 14.135 37.798a487 487 0 0 1-27.394 27.73l-3.479 3.388c-2.24 2.738-9.528 9.673-12.202 12.323l-25.264 24.863c-12.533 12.326-28.882 30.08-41.574 40.977-22.705-3.931-26.279 18.084-43.108 26.627-5.846 2.967-16.345-13.252-19.504-17.465a261.9 261.9 0 0 1-48.518-109.108c-5.524-30.471-5.511-39.011 28.551-36.6 12.544.888 20.077.543 27.519-10.61"/><path fill="#363f47" d="m407.984 523.005 38.873.048c1.411 14.329 5.731 26.015 14.135 37.798a487 487 0 0 1-27.394 27.73c-16.785-23.935-23.411-34.522-25.614-65.576"/><path fill="#1a0816" d="m401.49 523.008 6.494-.003c2.203 31.054 8.829 41.641 25.614 65.576l-3.479 3.388c-.563-.379-1.13-.737-1.591-1.241-16.514-18.065-26.739-43.594-27.038-67.72"/><path fill="#363f47" d="m305.123 341.292.825.258c9.749 2.989 18.993 15.119 26.508 21.839 6.185 5.531 9.983 7.481 18.175 5.078 14.502 12.396 30.255 29.4 43.909 42.902 11.11 10.986 24.48 23.437 34.91 34.779l5.176 5.174c9.284 9.036 18.475 17.892 27.286 27.403-7.672 10.213-13.723 22.835-14.612 35.741l-38.369.09-7.652.051-105.367-.14c-6.785-8.946-10.815-9.449-21.76-9.985-8.379-.411-24.177 1.832-31.137-1.782-9.535-5.561-4.822-18.535-3.663-26.696 5.888-41.479 22.003-81.312 46.262-115.434 5.257-7.393 10.428-16.808 19.509-19.278"/><path fill="#363f47" d="M434.626 451.322c9.284 9.036 18.475 17.892 27.286 27.403-7.672 10.213-13.723 22.835-14.612 35.741l-38.369.09c-.248-18.22 6.159-36.896 16.24-52.087 2.039-3.073 6.839-8.226 9.455-11.147"/><path fill="#1a0816" d="m429.45 446.148 5.176 5.174c-2.616 2.921-7.416 8.074-9.455 11.147-10.081 15.191-16.488 33.867-16.24 52.087l-7.652.051c1.074-6.492 1.681-12.81 3.093-19.314 4.088-18.832 12.891-34.467 25.078-49.145"/><path fill="#363f47" d="M562.634 561.416c10.995-16.156 10.997-21.146 14.663-38.915a1885 1885 0 0 1 37.753.288l6.986.198c34.285.164 74.421 1.294 108.25-.04 4.029 9.917 9.862 11.151 20.007 11.349 9.817.192 19.662.168 29.479.22 11.264 6.895 5.818 18.757 3.986 29.485-4.234 24.794-11.416 49.181-22.861 71.632-9.936 20.633-21.515 38.116-35.326 56.321-2.855 3.764-7.933 3.391-11.424.765-11.904-7.609-23.939-27.37-39.445-25.03-1.697.419-2.756.708-4.374 1.398l-32.68-32.463c-15.045-14.779-29.545-28.73-44.049-44.11l-4.094-4.109c-8.862-8.477-18.161-18.226-26.871-26.989"/><path fill="#363f47" d="M562.634 561.416c10.995-16.156 10.997-21.146 14.663-38.915a1885 1885 0 0 1 37.753.288c-2.022 27.653-7.737 44.379-25.545 65.616-8.862-8.477-18.161-18.226-26.871-26.989"/><path fill="#1a0816" d="m615.05 522.789 6.986.198c-.484 24.013-10.822 50.569-27.366 68.578-.177.193-.819.732-1.071.949l-4.094-4.109c17.808-21.237 23.523-37.963 25.545-65.616"/><path fill="#080a19" d="M505.761 478.929c22.736-3.512 43.978 12.18 47.303 34.945s-12.541 43.877-35.332 47.015c-22.529 3.102-43.345-12.541-46.631-35.043-3.287-22.503 12.185-43.446 34.66-46.917"/><path fill="#10dfe2" d="M505.857 485.052c19.262-3.445 37.642 9.462 40.941 28.749s-9.746 37.569-29.057 40.723c-19.107 3.12-37.153-9.756-40.417-28.839s9.476-37.225 28.533-40.633"/><path fill="#f0418b" d="M509.656 150.608c13.948-1.197 26.24 9.105 27.499 23.048s-8.988 26.28-22.925 27.602c-14.025 1.329-26.458-8.997-27.725-23.028s9.115-26.418 23.151-27.622m5.129 42.66c9.407-1.611 15.723-10.547 14.104-19.951s-10.56-15.714-19.964-14.086c-9.392 1.625-15.691 10.552-14.074 19.946 1.618 9.393 10.54 15.7 19.934 14.091"/><path fill="#fefefe" fill-opacity=".933" d="M508.925 159.231c9.404-1.628 18.344 4.681 19.964 14.086 1.619 9.404-4.697 18.34-14.104 19.951-9.394 1.609-18.316-4.698-19.934-14.091-1.617-9.394 4.682-18.321 14.074-19.946"/><path fill="#f0418b" d="M183.042 311.845c12.218-.949 7.108 8.546 3.459 14.363-9.631 15.357-17.448 31.831-24.322 48.58a368 368 0 0 0-27.782 168.15 368.22 368.22 0 0 0 92.528 223.458c9.285 10.446 16.114 18.169 26.552 27.394-1.648 1.971-3.83 4.125-5.637 6.004l-2.555 2.531c-7.646-6.748-19.538-20.057-26.759-27.743-8.478-9.379-15.875-20.068-23.363-30.133-86.686-116.511-94.863-278.796-28.038-406.532 3.504-6.698 10.521-21.376 15.917-26.072"/><path fill="#f0418b" d="M892.097 547.956c.638-.002 1.274-.013 1.909.067 1.684.213 3.538.859 4.504 2.347 4.502 6.945-8.462 62.464-11.083 71.871a389 389 0 0 1-83.899 154.406c-4.952 5.679-17.529 19.912-23.57 23.31-8.018-.531-9.689-6.238-4.645-11.422a843 843 0 0 0 18.776-19.923 336.6 336.6 0 0 0 33.507-42.933c35.282-53.335 53.339-110.632 60.901-173.163.207-1.707 2.371-3.501 3.6-4.56"/><path fill="#f0418b" fill-opacity=".945" d="M893.077 494.009c10.334-1.392 8.041 8.076 8.431 15.17.233 4.224.129 9.252-.186 13.439-1.07 1.548-.91 1.098-3.087 1.884-2.702.062-5.878.332-8.232-.967-1.262-4.666-.643-20.032-.518-25.56.041-1.795 2.126-2.985 3.592-3.966"/></svg>